<?xml version="1.0" encoding="UTF-8"?>
<svg width="28px" height="28px" viewBox="0 0 28 28" version="1.1" xmlns="http://www.w3.org/2000/svg" xmlns:xlink="http://www.w3.org/1999/xlink">
    <!-- Generator: Sketch 55.2 (78181) - https://sketchapp.com -->
    <title>Icon/Alert Circle/Fill</title>
    <desc>Created with Sketch.</desc>
    <g id="atomic-design-UI-pattern" stroke="none" stroke-width="1" fill="none" fill-rule="evenodd">
        <g id="atoms" transform="translate(-246.000000, -10325.000000)">
            <g id="Icon/Alert-Circle/Fill" transform="translate(244.000000, 10323.000000)">
                <polygon id="24pt-Bounding-Box" opacity="0" fill-rule="nonzero" points="0 0 32 0 32 32 0 32"></polygon>
                <path d="M16,2.66666667 L15.9999994,2.66666667 C8.63619942,2.66666667 2.66666608,8.6362 2.66666608,16 C2.66666608,23.3638 8.63619942,29.3333333 15.9999994,29.3333333 C23.3637994,29.3333333 29.3333328,23.3638 29.3333328,16 L29.3333328,16.0000006 C29.3333328,8.63620058 23.3637994,2.66666667 15.9999994,2.66666667 L16,2.66666667 Z M16,22.6666667 L15.9999999,22.6666667 C15.2636199,22.6666667 14.6666666,22.0697133 14.6666666,21.3333333 C14.6666666,20.5969533 15.2636199,20 15.9999999,20 C16.7363799,20 17.3333333,20.5969533 17.3333333,21.3333333 L17.3333333,21.3333333 C17.3333333,22.0697133 16.7363799,22.6666667 15.9999999,22.6666667 L16,22.6666667 Z M17.3333333,17.3333335 L17.3333333,17.3333335 C17.3333333,18.0697133 16.73638,18.6666667 16,18.6666667 C15.26362,18.6666667 14.6666667,18.0697133 14.6666667,17.3333335 L14.6666667,10.6666667 L14.6666667,10.6666669 C14.6666667,9.93028687 15.26362,9.33333353 16,9.33333353 C16.73638,9.33333353 17.3333333,9.93028687 17.3333333,10.6666669 C17.3333333,10.6666669 17.3333333,10.6666669 17.3333333,10.6666669 L17.3333333,17.3333335 Z" id="Fill" fill="#FFFFFF" fill-rule="evenodd"></path>
            </g>
        </g>
    </g>
</svg>