<?xml version="1.0" encoding="UTF-8"?>
<svg width="28px" height="28px" viewBox="0 0 28 28" version="1.1" xmlns="http://www.w3.org/2000/svg" xmlns:xlink="http://www.w3.org/1999/xlink">
    <!-- Generator: Sketch 55.2 (78181) - https://sketchapp.com -->
    <title>Icon/Pie Chart/Fill</title>
    <desc>Created with Sketch.</desc>
    <g id="atomic-design-UI-pattern" stroke="none" stroke-width="1" fill="none" fill-rule="evenodd">
        <g id="atoms" transform="translate(-159.000000, -10325.000000)">
            <g id="Icon/Pie-Chart/Fill" transform="translate(157.000000, 10323.000000)">
                <polygon id="24pt-Bounding-Box" opacity="0" fill-rule="nonzero" points="0 0 32 0 32 32 0 32"></polygon>
                <path d="M19.3333332,13.7733333 C18.7221385,13.7733333 18.2266665,13.2778611 18.2266665,12.6666666 L18.2266665,3.77333328 C18.2266665,3.16213862 18.7221385,2.66666662 19.3333333,2.66666662 C24.8561866,2.66666662 29.3333333,7.14381328 29.3333333,12.6666666 C29.3333333,13.2778613 28.8378613,13.7733333 28.2266665,13.7733333 L19.3333333,13.7733333 Z M28.1066667,16 L28.1066576,15.9999885 C28.1438163,15.9998477 28.1809621,16.0013955 28.2179803,16.004627 C28.8928829,16.0635416 29.3922396,16.658419 29.3333243,17.3333215 C28.6697243,23.5829615 23.7320309,28.5206441 17.4824043,29.1842548 C10.1597776,29.9618015 3.59328294,24.6559615 2.81573761,17.3333348 C2.03819094,10.0107081 7.34403094,3.44421347 14.6666587,2.66666802 C14.7133564,2.6615608 14.7603088,2.65939686 14.807284,2.65939686 C15.4847413,2.66342902 16.0306773,3.21586769 16.0266666,3.89333333 L16.0266666,14.7866667 C16.0266666,15.456772 16.5698946,16 17.24,16 L28.1066667,16 Z" id="Fill" fill="#FFFFFF" fill-rule="evenodd"></path>
            </g>
        </g>
    </g>
</svg>