<svg width="12" height="14" viewBox="0 0 12 14" fill="none" xmlns="http://www.w3.org/2000/svg">
<path d="M8.66679 1.4C8.10964 1.92773 7.60661 2.48254 7.16089 3.0398C6.43071 2.01305 5.52536 0.971523 4.5 0C1.86804 2.49293 0 5.74109 0 7.7C0 11.1795 2.68634 14 6 14C9.31366 14 12 11.1795 12 7.7C12 6.2434 10.6077 3.23914 8.66679 1.4ZM6 12.6875C3.40045 12.6875 1.28571 10.45 1.28571 7.7C1.28571 6.45941 2.47232 4.05754 4.50429 1.84598C5.10268 2.48473 5.65125 3.15082 6.12054 3.8109L7.10143 5.19012L8.15705 3.86969C8.31321 3.67418 8.47446 3.48277 8.63946 3.29629C9.88098 4.86609 10.7143 6.84742 10.7143 7.7C10.7143 10.45 8.59955 12.6875 6 12.6875ZM8.39652 6.64891L7.02241 8.24906C7.02241 8.24906 4.8683 5.44086 4.70598 5.25C3.56973 6.6407 3 7.45445 3 8.3784C3 10.2329 4.37598 11.375 6.06696 11.375C6.74357 11.375 7.36929 11.1598 7.87714 10.7972C9.03107 9.97309 9.30161 8.37512 8.66089 7.1266C8.58187 6.97293 8.49375 6.8127 8.39652 6.64891Z" fill="#FF3131"/>
</svg>
