<?xml version="1.0" encoding="UTF-8" standalone="no"?>
<svg
   xmlns:dc="http://purl.org/dc/elements/1.1/"
   xmlns:cc="http://creativecommons.org/ns#"
   xmlns:rdf="http://www.w3.org/1999/02/22-rdf-syntax-ns#"
   xmlns:svg="http://www.w3.org/2000/svg"
   xmlns="http://www.w3.org/2000/svg"
   xmlns:sodipodi="http://sodipodi.sourceforge.net/DTD/sodipodi-0.dtd"
   xmlns:inkscape="http://www.inkscape.org/namespaces/inkscape"
   width="10"
   height="14"
   viewBox="0 0 10 14"
   fill="none"
   version="1.1"
   id="svg3849"
   sodipodi:docname="locationIconBlue.svg"
   inkscape:version="0.92.4 (5da689c313, 2019-01-14)">
  <metadata
     id="metadata3855">
    <rdf:RDF>
      <cc:Work
         rdf:about="">
        <dc:format>image/svg+xml</dc:format>
        <dc:type
           rdf:resource="http://purl.org/dc/dcmitype/StillImage" />
        <dc:title></dc:title>
      </cc:Work>
    </rdf:RDF>
  </metadata>
  <defs
     id="defs3853" />
  <sodipodi:namedview
     pagecolor="#ffffff"
     bordercolor="#666666"
     borderopacity="1"
     objecttolerance="10"
     gridtolerance="10"
     guidetolerance="10"
     inkscape:pageopacity="0"
     inkscape:pageshadow="2"
     inkscape:window-width="640"
     inkscape:window-height="787"
     id="namedview3851"
     showgrid="false"
     inkscape:zoom="16.857143"
     inkscape:cx="5"
     inkscape:cy="7"
     inkscape:window-x="749"
     inkscape:window-y="250"
     inkscape:window-maximized="0"
     inkscape:current-layer="svg3849" />
  <path
     d="m 5.0593221,0.05932203 c -2.76294,0 -5.00000025,2.35194997 -5.00000025,5.24999997 0,1.94461 0.6247662,2.5523 3.93935025,8.1327 0.48919,0.8236 1.63265,0.8226 2.12127,0 3.31633,-5.58333 3.9393799,-6.18847 3.9393799,-8.1327 0,-2.90109 -2.23995,-5.24999997 -4.9999999,-5.24999997 z m 0,12.68749997 c -3.31833,-5.58671 -3.75,-5.93939 -3.75,-7.4375 0,-2.17462 1.67893,-3.9375 3.75,-3.9375 2.0710699,0 3.75,1.76288 3.75,3.9375 0,1.49169 -0.3949501,1.78897 -3.75,7.4375 z m -2.08333,-7.4375 c 0,-1.20813 0.93273,-2.1875 2.08333,-2.1875 1.1506,0 2.0833299,0.97937 2.0833299,2.1875 0,1.20813 -0.9327299,2.1875 -2.0833299,2.1875 -1.1506,0 -2.08333,-0.97937 -2.08333,-2.1875 z"
     id="path3847"
     inkscape:connector-curvature="0"
     style="fill:#2ad4ff" />
</svg>
