<svg width="10" height="14" viewBox="0 0 10 14" fill="none" xmlns="http://www.w3.org/2000/svg">
<path d="M5 0C2.23706 0 0 2.35195 0 5.25C0 7.19461 0.624765 7.8023 3.93935 13.3827C4.42854 14.2063 5.572 14.2053 6.06062 13.3827C9.37695 7.79937 10 7.19423 10 5.25C10 2.34891 7.76005 0 5 0ZM5 12.6875C1.68167 7.10079 1.25 6.74811 1.25 5.25C1.25 3.07538 2.92893 1.3125 5 1.3125C7.07107 1.3125 8.75 3.07538 8.75 5.25C8.75 6.74169 8.35505 7.03897 5 12.6875ZM2.91667 5.25C2.91667 4.04187 3.8494 3.0625 5 3.0625C6.1506 3.0625 7.08333 4.04187 7.08333 5.25C7.08333 6.45813 6.1506 7.4375 5 7.4375C3.8494 7.4375 2.91667 6.45813 2.91667 5.25Z" fill="#02EB43"/>
</svg>
