<svg
            width="6"
            height="10"
            viewBox="0 0 6 12"
            fill="none"
            xmlns="http://www.w3.org/2000/svg"
          >
            <path
              d="M3 0C4.65687 0 6 1.51102 6 3.375C6 5.11055 4.83125 6.52336 3.33333 6.71227V11.5505L3.10396 11.9374C3.05437 12.0209 2.94542 12.0209 2.89604 11.9374L2.66667 11.5505V6.71227C1.16875 6.52359 0 5.11055 0 3.375C0 1.51102 1.34312 0 3 0ZM3 6C4.28667 6 5.33333 4.8225 5.33333 3.375C5.33333 1.9275 4.28667 0.75 3 0.75C1.71333 0.75 0.666667 1.9275 0.666667 3.375C0.666667 4.8225 1.71333 6 3 6ZM3 1.5C3.91917 1.5 4.66667 2.34117 4.66667 3.375C4.66667 3.58219 4.5175 3.75 4.33333 3.75C4.14917 3.75 4 3.58219 4 3.375C4 2.75461 3.55146 2.25 3 2.25C2.81583 2.25 2.66667 2.08219 2.66667 1.875C2.66667 1.66781 2.81583 1.5 3 1.5Z"
              fill="black"
            />
          </svg>