<?xml version="1.0" encoding="UTF-8"?>
<svg width="24px" height="22px" viewBox="0 0 24 22" version="1.1" xmlns="http://www.w3.org/2000/svg" xmlns:xlink="http://www.w3.org/1999/xlink">
    <!-- Generator: Sketch 55.2 (78181) - https://sketchapp.com -->
    <title>Icon/Map/Fill</title>
    <desc>Created with Sketch.</desc>
    <g id="atomic-design-UI-pattern" stroke="none" stroke-width="1" fill="none" fill-rule="evenodd">
        <g id="atoms" transform="translate(-422.000000, -10328.000000)">
            <g id="Icon/Map/Fill" transform="translate(418.000000, 10323.000000)">
                <polygon id="24pt-Bounding-Box" opacity="0" fill-rule="nonzero" points="0 0 32 0 32 32 0 32"></polygon>
                <path d="M27.2133333,7.85333333 L21.88,5.45333333 L20.7866667,5.45333333 L16,7.6 L11.2133333,5.45333333 L11.1466667,5.45333333 L10.9866667,5.33333333 L10.1866667,5.33333333 L4.85333333,7.73333333 L4.85333336,7.73333332 C4.30728136,7.94256532 3.9612867,8.48318399 4.00000003,9.06666666 L4.00000003,25.3333333 L4.00000001,25.3333198 C4.00075059,25.7866424 4.23177734,26.2085278 4.61332134,26.4533264 L4.61332136,26.4533264 C4.82792803,26.5919544 5.07784669,26.6660051 5.33333336,26.6666664 L5.33333339,26.6666664 C5.52199339,26.6657926 5.70832006,26.6248916 5.88000006,26.5466664 L10.6666667,24.3999998 L15.4533334,26.5466664 L15.5200001,26.5466664 L15.5200002,26.5466665 C15.8241975,26.6888891 16.1758028,26.6888891 16.4800002,26.5466664 L16.5466668,26.5466664 L21.3333335,24.3999997 L26.1200002,26.5466664 L26.1200002,26.5466664 C26.2916802,26.6248916 26.4780069,26.6657925 26.6666669,26.6666664 L26.6666668,26.6666664 C26.9221495,26.6660043 27.1720615,26.591956 27.3866668,26.4533331 L27.3866668,26.4533331 C27.7682135,26.2085384 27.9992455,25.7866558 28.0000002,25.3333333 L28.0000002,9.06666643 L28.0000002,9.06668629 C27.998915,8.54282096 27.6911602,8.06813296 27.2133522,7.85334096 L27.2133333,7.85333333 Z M12,8.73333333 L14.6666667,9.92 L14.6666667,23.2533333 L12,22.0666667 L12,8.73333333 Z M25.3333333,23.2666667 L22.6666667,22.08 L22.6666667,8.74666667 L25.3333333,9.93333333 L25.3333333,23.2666667 Z" id="Fill" fill="#FFFFFF" fill-rule="evenodd"></path>
            </g>
        </g>
    </g>
</svg>