<?xml version="1.0" encoding="UTF-8"?>
<svg width="20px" height="24px" viewBox="0 0 20 24" version="1.1" xmlns="http://www.w3.org/2000/svg" xmlns:xlink="http://www.w3.org/1999/xlink">
    <!-- Generator: Sketch 55.2 (78181) - https://sketchapp.com -->
    <title>Icon/Person/Fill</title>
    <desc>Created with Sketch.</desc>
    <g id="atomic-design-UI-pattern" stroke="none" stroke-width="1" fill="none" fill-rule="evenodd">
        <g id="atoms" transform="translate(-685.000000, -10327.000000)">
            <g id="Icon/Person/Fill" transform="translate(679.000000, 10323.000000)">
                <polygon id="24pt-Bounding-Box" opacity="0" fill-rule="nonzero" points="0 0 32 0 32 32 0 32"></polygon>
                <path d="M15.9999998,14.6666667 C13.0544798,14.6666667 10.6666664,12.2788525 10.6666664,9.33333333 C10.6666664,6.38781333 13.0544798,4 15.9999998,4 C18.9455198,4 21.3333331,6.38781333 21.3333331,9.33333333 C21.3333331,12.2788533 18.9455198,14.6666667 16,14.6666667 Z M24,28.0000002 L7.99999994,28.0000002 C7.26361994,28.0000002 6.66666661,27.4030469 6.66666661,26.6666667 C6.66666661,21.5120133 10.8453466,17.3333333 15.9999999,17.3333333 C21.1546533,17.3333333 25.3333333,21.5120133 25.3333333,26.6666667 C25.3333333,27.4030467 24.7363799,28.0000002 24,28.0000002 Z" id="Fill" fill="#FFFFFF" fill-rule="evenodd"></path>
            </g>
        </g>
    </g>
</svg>